<?xml version="1.0" encoding="UTF-8" standalone="no"?>
<!-- Created with Inkscape (http://www.inkscape.org/) -->

<svg
   width="489.69299"
   height="256"
   viewBox="0 0 129.56459 67.733331"
   version="1.1"
   id="svg1"
   xml:space="preserve"
   inkscape:version="1.3.2 (091e20ef0f, 2023-11-25, custom)"
   sodipodi:docname="Filigree left.svg"
   xmlns:inkscape="http://www.inkscape.org/namespaces/inkscape"
   xmlns:sodipodi="http://sodipodi.sourceforge.net/DTD/sodipodi-0.dtd"
   xmlns="http://www.w3.org/2000/svg"
   xmlns:svg="http://www.w3.org/2000/svg"><sodipodi:namedview
     id="namedview1"
     pagecolor="#c8c8c8"
     bordercolor="#eeeeee"
     borderopacity="1"
     inkscape:showpageshadow="0"
     inkscape:pageopacity="0"
     inkscape:pagecheckerboard="0"
     inkscape:deskcolor="#505050"
     inkscape:document-units="px"
     inkscape:zoom="1.5108866"
     inkscape:cx="137.00565"
     inkscape:cy="130.38702"
     inkscape:window-width="1920"
     inkscape:window-height="1052"
     inkscape:window-x="0"
     inkscape:window-y="0"
     inkscape:window-maximized="1"
     inkscape:current-layer="layer1" /><defs
     id="defs1" /><g
     inkscape:label="Layer 1"
     inkscape:groupmode="layer"
     id="layer1"><path
       style="fill:#000000;stroke-width:2.43391"
       d="m 101.62565,67.8727 c -1.42576,-1.425657 -0.63256,-3.545805 1.41266,-3.776334 0.89618,-0.100959 1.01958,-0.05601 1.69343,0.617887 1.55979,1.559753 0.57466,3.859097 -1.65338,3.859097 -0.58054,0 -0.91188,-0.15996 -1.45271,-0.70065 z m 5.78122,-0.0114 c -0.34899,-0.349251 -0.50583,-0.73491 -0.50583,-1.245813 0,-0.510895 0.15641,-0.896588 0.50583,-1.245804 0.34946,-0.349229 0.7349,-0.505805 1.24582,-0.505805 0.51085,0 0.89655,0.156576 1.24578,0.505805 0.34899,0.349255 0.50585,0.734909 0.50585,1.245804 0,0.510903 -0.15641,0.896595 -0.50585,1.245813 -0.34946,0.349223 -0.73493,0.5058 -1.24578,0.5058 -0.51092,0 -0.89659,-0.156577 -1.24582,-0.5058 z M 94.924596,67.361001 c -0.68552,-0.68558 -0.79993,-0.928852 -0.79926,-1.700115 8e-4,-1.150385 0.61799,-2.174664 1.54265,-2.561028 0.94169,-0.393475 1.51275,-0.374114 2.35923,0.07981 1.63406,0.876367 1.91319,3.056335 0.55125,4.304511 -0.63419,0.581196 -0.88799,0.67681 -1.79616,0.67681 -0.95382,0 -1.1362,-0.07854 -1.85771,-0.800023 z m 17.465174,-0.03911 c -0.6871,-0.540503 -0.70136,-1.287927 -0.0366,-1.952109 0.65882,-0.658852 1.0422,-0.638029 1.77681,0.09652 0.73458,0.734565 0.75541,1.117992 0.0967,1.776845 -0.61792,0.617936 -1.12316,0.639576 -1.8362,0.07855 z m -23.903934,-0.07907 c -2.47203,-0.888646 -3.06047,-3.627544 -1.15011,-5.353418 1.85656,-1.677288 4.43046,-0.918859 5.16143,1.520865 0.7353,2.454191 -1.61061,4.695569 -4.01132,3.832553 z m -7.47434,-2.980235 c -0.94834,-0.578276 -1.31195,-1.216224 -1.31195,-2.301742 0,-2.981731 4.16328,-3.670305 5.14539,-0.851023 0.26648,0.764416 0.26648,0.973768 0,1.738179 -0.56069,1.609585 -2.40035,2.288444 -3.83344,1.414586 z m 32.277794,-2.098617 c -6.1265,-0.533526 -12.69662,-2.140412 -18.854544,-4.611402 -3.42448,-1.374134 -8.39324,-3.903955 -10.8498,-5.524075 -4.53703,-2.992312 -9.81882,-7.711175 -17.54177,-15.67231 -7.44424,-7.673764 -10.92698,-10.844058 -14.66375,-13.347969 -3.89067,-2.607066 -7.78067,-4.551912 -10.52449,-5.261769 -2.51851,-0.65158 -6.96264,-0.880549 -9.60154,-0.494688 -7.44027,1.087906 -13.48212,5.201641 -16.16361,11.005279 -1.16622,2.52408 -1.61049,4.725797 -1.60696,7.962957 0.004,2.444239 0.0689,2.982107 0.5453,4.430552 0.66712,2.028681 1.79349,3.976934 3.04819,5.27246 3.69706,3.817465 9.65451,4.660758 13.86381,1.962485 1.53396,-0.98328 1.74443,-1.378625 0.37193,-0.698295 -3.489,1.729322 -7.40652,1.003022 -10.47318,-1.941728 -3.57396,-3.431888 -4.38858,-8.844024 -2.01196,-13.366775 1.79544,-3.416666 5.52055,-6.174376 9.45777,-7.001613 1.70176,-0.357526 4.67639,-0.317996 6.28517,0.08359 5.51224,1.375962 10.56279,6.516208 12.04902,12.262993 1.99784,7.725214 -0.95756,15.304103 -8.0306,20.593783 -1.70961,1.278562 -5.03284,2.833765 -7.4521,3.487433 -1.83143,0.494858 -2.37545,0.547748 -5.63342,0.547748 -3.26948,0 -3.79829,-0.0519 -5.66218,-0.555019 C 10.303529,58.722934 2.5552126,49.801963 0.87890329,39.466119 c -0.39576,-2.440962 -0.39576,-6.524201 0,-8.965153 C 2.3734326,21.28592 9.0797626,12.53801 18.228296,7.869834 c 9.55574,-4.8758991 20.73014,-5.0252163 30.41631,-0.4064585 6.23777,2.9744325 10.60191,7.0295165 22.4098,20.8228055 6.08167,7.104233 9.26692,10.585036 13.12518,14.342875 8.96489,8.731728 17.816794,14.144704 27.054554,16.544163 4.83917,1.256912 6.65502,1.466263 12.71884,1.466263 4.74434,0 5.28854,0.03216 4.43052,0.26126 -4.92454,1.315217 -9.80588,1.723729 -15.09407,1.263213 z m 9.89144,-0.791732 c 1.6051,-0.140936 1.47937,-0.156404 -1.50214,-0.185605 -8.03601,-0.07891 -14.82409,-1.684197 -21.887084,-5.176281 -5.15107,-2.546812 -9.34301,-5.363736 -14.47483,-9.726936 C 81.880146,43.361607 74.743556,36.090502 68.971896,29.630545 60.527516,20.179112 57.053486,16.660126 53.453366,13.910996 47.701396,9.5187076 41.393916,7.3727943 34.229646,7.3707592 25.799616,7.3684092 18.073136,10.539363 12.129956,16.440626 4.5912126,23.926208 2.0725726,33.592747 5.2130926,42.98765 c 2.41185,7.215124 8.0898634,13.010433 14.8286134,15.134846 6.63962,2.093157 13.93025,0.42819 19.08821,-4.359121 2.62479,-2.436195 4.42941,-5.341304 5.26528,-8.476205 0.49089,-1.841119 0.48395,-5.801924 -0.0126,-7.612748 -2.13023,-7.756501 -9.18526,-12.541173 -16.27674,-11.038739 -4.70809,0.997477 -8.68751,5.014746 -9.44302,9.532808 -0.69572,4.160619 1.73317,8.814532 5.54191,10.618561 1.3149,0.622799 1.54191,0.663849 3.6684,0.663268 2.0852,-4.11e-4 2.36588,-0.04886 3.50327,-0.602808 0.73705,-0.358992 1.73415,-1.10779 2.46888,-1.854055 l 1.23245,-1.25182 -0.89309,1.275723 c -1.25658,1.794852 -3.21635,3.600865 -4.62929,4.266105 -1.36798,0.644054 -3.50938,1.148348 -4.87628,1.148348 -2.98722,0 -6.42883,-1.489921 -8.71332,-3.772033 -1.74694,-1.74518 -2.63417,-3.168704 -3.51908,-5.646289 -0.62756,-1.757035 -0.64467,-1.899357 -0.63931,-5.308666 0.0109,-3.947628 0.34304,-5.682496 1.65345,-8.518966 1.95796,-4.237703 6.24752,-8.151709 10.90731,-9.9524 3.66947,-1.417983 5.18556,-1.691132 9.48109,-1.708164 4.32972,-0.01742 5.81357,0.21311 8.83852,1.371671 5.53127,2.118474 13.23591,8.016563 25.36944,19.420941 10.58263,9.946654 13.76628,12.520386 19.75081,15.967058 10.73732,6.183927 25.434304,9.959494 35.373494,9.087269 z m 3.0396,-0.359602 c -0.19858,-0.0519 -0.52295,-0.0519 -0.72124,0 -0.19859,0.05192 -0.0366,0.0942 0.36045,0.0942 0.3967,0 0.55895,-0.04215 0.36046,-0.0942 z m -50.577414,0.0464 c -1.79494,-0.78067 -1.64211,-3.609399 0.22825,-4.226705 1.41629,-0.467414 2.74759,0.34057 2.93593,1.781877 0.139,1.062874 -0.19626,1.838044 -1.00864,2.333446 -0.78744,0.480073 -1.25263,0.504117 -2.1556,0.111436 z m 48.774264,-1.971364 c -10.96797,-0.697958 -20.24983,-4.20699 -28.025844,-10.595275 -2.33842,-1.92115 -9.01245,-8.638957 -10.80257,-10.873516 -4.65559,-5.81131 -6.39636,-12.895645 -4.7556,-19.353804 1.06932,-4.208992 4.26945,-8.5074265 7.98931,-10.7312741 7.83169,-4.682047 18.567064,-1.8332586 22.291014,5.9152561 3.91339,8.142785 -1.40024,17.837965 -9.76814,17.822767 -4.570494,-0.0083 -8.607694,-3.173007 -9.274494,-7.270121 -0.24028,-1.477213 0.0464,-3.365501 0.70601,-4.651138 0.82918,-1.615688 1.18153,-1.866173 0.4748,-0.33758 -0.58147,1.257741 -0.66544,1.653659 -0.65572,3.091081 0.0109,1.348983 0.11641,1.881596 0.58939,2.930828 0.70496,1.563223 2.19192,3.033317 3.92729,3.882615 1.14974,0.562716 1.40256,0.605138 3.606254,0.605138 2.24289,0 2.44512,-0.03582 3.77428,-0.665175 2.68713,-1.27276 4.53906,-3.820574 5.2396,-7.208494 0.29719,-1.437751 0.31186,-1.922996 0.10237,-3.362795 -0.28941,-1.98461 -1.26481,-4.151584 -2.521,-5.600146 -1.20406,-1.388342 -3.62645,-2.9359261 -5.62358,-3.5927038 -2.349284,-0.7725685 -5.692674,-0.8191863 -7.977974,-0.1112046 -2.873,0.8900051 -5.42542,2.7143504 -7.11996,5.0890054 -4.30481,6.032697 -3.95805,13.932109 0.92033,20.966009 1.31614,1.897668 6.06329,7.269186 8.76145,9.913829 8.190424,8.027892 17.211474,12.189765 29.993364,13.837471 1.41442,0.182355 2.61225,0.372064 2.66177,0.421596 0.11358,0.113925 -1.47899,0.07073 -4.51224,-0.122277 z m 0.20604,-1.717693 c -4.75442,-1.43208 -8.922,-5.144707 -11.41097,-10.165375 -1.66878,-3.36626 -2.16773,-6.922527 -1.23039,-8.769306 0.27102,-0.533524 0.58192,-0.670317 1.30743,-0.574857 0.94402,0.124195 2.74177,2.677914 4.21278,5.984247 2.56019,5.75456 3.71211,7.740414 5.56485,9.593129 1.26608,1.266091 3.19383,2.594777 4.97153,3.426693 0.72857,0.340918 1.27281,0.703845 1.20939,0.806488 -0.22237,0.359448 -3.04095,0.175947 -4.62462,-0.301043 z m -53.098834,-0.02061 c -1.15591,-0.499806 -1.45151,-1.746158 -0.63444,-2.674684 0.70992,-0.806713 1.58813,-0.886779 2.38382,-0.21727 0.81485,0.685655 0.89255,1.674174 0.19219,2.444648 -0.60871,0.669557 -1.14288,0.792627 -1.94146,0.447331 z m -3.68338,-3.706943 c -0.60342,-0.603387 -0.64121,-1.135997 -0.12565,-1.772498 0.45495,-0.561533 1.53596,-0.633651 2.03396,-0.135603 0.49794,0.497977 0.42605,1.579248 -0.13597,2.033952 -0.6365,0.515418 -1.1691,0.477606 -1.77246,-0.125833 z M 78.538146,12.41999 c -0.0713,-0.186013 -0.0321,-0.437003 0.0897,-0.557777 0.31413,-0.313958 0.90882,-0.02705 0.82684,0.398845 -0.0913,0.474357 -0.75169,0.588839 -0.91668,0.158908 z m 0.34661,-1.432516 c -0.55653,-0.670587 0.36456,-1.4773968 0.98181,-0.860062 0.26231,0.262456 0.28935,0.423472 0.11641,0.697911 -0.30086,0.477811 -0.77789,0.548234 -1.0983,0.16216 z m 0.4106,-1.9541839 c -0.42647,-0.796741 0.43615,-1.6753821 1.22848,-1.2513622 0.45676,0.2445608 0.54798,1.0181523 0.16457,1.4012911 -0.37788,0.3781172 -1.15546,0.2944703 -1.39334,-0.1499329 z m 0.99461,-2.1573057 c -0.56742,-1.2453409 1.21102,-2.1751077 1.81833,-0.9506427 0.3458,0.6974613 -0.0682,1.3190404 -0.93667,1.4058584 -0.52179,0.052149 -0.69005,-0.034854 -0.88166,-0.4552085 z M 82.198886,4.98681 c -0.43201,-0.549284 -0.3958,-0.9602725 0.14004,-1.5839098 0.63202,-0.7358274 2.10055,-0.1235038 2.10055,0.8758096 0,0.5656613 -0.71859,1.2364258 -1.32455,1.2364258 -0.29122,0 -0.67367,-0.220505 -0.91582,-0.5283256 z m 2.53859,-1.6231653 c -0.32058,-0.4896367 -0.3215,-0.5647156 -0.0109,-1.0428032 0.41411,-0.6322388 1.15318,-0.6713627 1.68032,-0.088972 0.3522,0.3889869 0.35864,0.4745106 0.0772,0.9788405 -0.432,0.7735538 -1.29309,0.8488146 -1.74906,0.1529543 z m 2.84195,-0.4586896 c -0.84657,-0.341063 -0.66547,-1.7173794 0.22621,-1.7173794 0.59486,0 0.96129,0.3664243 0.96129,0.9612867 0,0.3744485 -0.56679,0.9509725 -0.86227,0.8770891 -0.0366,-0.00924 -0.18219,-0.063378 -0.32516,-0.1209804 z m 1.83541,-0.9598997 c -0.38477,-0.46373 -0.0606,-0.99533771 0.5631,-0.9230162 0.42234,0.048984 0.54034,0.1752413 0.54034,0.5778444 0,0.5998985 -0.70817,0.8214316 -1.10344,0.3451892 z m 2.17326,-0.089249 c -0.52605,-0.1198431 -0.38246,-0.97733939 0.16387,-0.97733939 0.23493,0 0.44072,0.16297769 0.48301,0.38251809 0.0919,0.4755573 -0.15924,0.7059407 -0.64675,0.5948315 z"
       id="path1"
       sodipodi:nodetypes="ssssscssscsssccssssssccsscccssssscsssssssssccssssssssssscscssssssssssssssssssssscsssssscsssssccscssssscssccssssssssssssssssscsscscsssssssssscssssscssssssssscssssccscssscsscsssccssccssccsccccsccccssscscsssssssscss" /></g></svg>
