<svg xmlns="http://www.w3.org/2000/svg" width="35.92" height="132.878">
    <g style="display:inline">
        <path d="M17.958 132.878H6.265c-6.107-.116-7.867-8.452-4.76-12.874C5.13 114.842 3.97 106.2 4.09 103.649c.107-2.552-2.72-21.48-3.586-37.463-1.134-20.82 6.32-33.826 8.28-37.81 3.346-6.787 3.253-21.923 3.253-25.17H23.89c0 3.247-.107 18.383 3.24 25.17 1.973 3.984 9.423 16.99 8.293 37.81-.867 15.983-3.693 34.911-3.587 37.463.12 2.552-1.053 11.193 2.573 16.355 3.114 4.422 1.36 12.758-4.76 12.874z" style="fill:#c5eaff;fill-opacity:1;fill-rule:nonzero;stroke:none;stroke-width:.13333"/>
        <path d="M1.505 120.004C5.13 114.842 3.97 106.2 4.09 103.649c.107-2.552-2.72-21.48-3.586-37.463-1.134-20.82 6.32-33.826 8.28-37.81 3.346-6.787 3.253-21.923 3.253-25.17h5.92v129.672H6.265c-6.107-.116-7.867-8.452-4.76-12.874" style="fill:#b0dcf9;fill-opacity:1;fill-rule:nonzero;stroke:none;stroke-width:.13333"/>
        <path d="M12.784 3.448h10.347c.946 0 1.733-.776 1.733-1.724S24.077 0 23.131 0H12.784c-.946 0-1.72.776-1.72 1.724s.774 1.724 1.72 1.724" style="fill:#2e5e7f;fill-opacity:1;fill-rule:nonzero;stroke:none;stroke-width:.13333"/>
        <path d="M17.958 3.448h-5.174c-.946 0-1.72-.776-1.72-1.724S11.838 0 12.784 0h5.174z" style="fill:#1c466e;fill-opacity:1;fill-rule:nonzero;stroke:none;stroke-width:.13333"/>
        <path d="M10.718 114.9a2.587 2.587 0 1 0 5.174-.004 2.587 2.587 0 0 0-5.174.004m2.586-21.23c0 1.13.907 2.046 2.04 2.046a2.05 2.05 0 0 0 2.054-2.046c0-1.131-.92-2.048-2.054-2.048a2.04 2.04 0 0 0-2.04 2.048m2.587 9.057a2.635 2.635 0 0 0 2.64 2.64 2.644 2.644 0 0 0 2.64-2.64 2.643 2.643 0 0 0-2.64-2.64 2.635 2.635 0 0 0-2.64 2.64" style="display:inline;fill:#b0dcf9;fill-opacity:1;fill-rule:nonzero;stroke:none;stroke-width:.13333"/>
    </g>
    <g style="display:inline">
        <path d="M109.868 388.04h105.744s5.3-55.77 0-118.1c-5.4-62.33-20.1-97.51-20.1-97.51H21.074s-14.7 35.18-20.1 97.51c-5.3 62.33 0 118.1 0 118.1z" style="fill:#2e5e7f;fill-opacity:1;fill-rule:nonzero;stroke:none" transform="matrix(.13175 0 0 .13175 3.684 16.08)"/>
        <path d="M18.158 67.203H3.812s-.698-7.347 0-15.559c.711-8.212 2.648-12.847 2.648-12.847h11.698z"/>
        <path d="M214.568 407.13s-14.5 154.58-20 189.75c-5.5 35.18-10.7 143.34 11.5 170.74 19.6 24.19 18.8 70.43-12.1 70.43h-85.4V407.13z" style="fill:#2e5e7f;fill-opacity:1;fill-rule:nonzero;stroke:none" transform="matrix(.13175 0 0 .13175 3.684 16.08)"/>
        <path d="M11.668 766.41c22.3-27.4 16-134.35 10.6-169.53-5.5-35.17-20-189.75-20-189.75h106.3v430.92h-85.7c-30.9 0-30.8-47.45-11.2-71.64" style="fill:#1c466e;fill-opacity:1;fill-rule:nonzero;stroke:none" transform="matrix(.13175 0 0 .13175 3.684 16.08)"/>
        <path d="M138.768 3.6s4.9 57.39 17.8 78.81c13 21.42 33.2 72.34 33.2 72.34h-81.4V3.6Z" style="fill:#2e5e7f;fill-opacity:1;fill-rule:nonzero;stroke:none;stroke-width:.999995" transform="matrix(.13175 0 0 .13175 3.684 16.08)"/>
        <path d="M60.168 82.41c13-21.42 17.8-78.81 17.8-78.81h30.4v151.15h-81.3s20.2-50.92 33.1-72.34" style="fill:#1c466e;fill-opacity:1;fill-rule:nonzero;stroke:none" transform="matrix(.13175 0 0 .13175 3.684 16.08)"/>
        <path d="M3.882 67.075c-.038-.062-.14-1.818-.225-3.901-.356-8.704.462-16.775 2.297-22.652l.513-1.645h11.694V67.19h-7.104c-3.908 0-7.136-.051-7.175-.114" style="fill:#1c466e;fill-opacity:1;stroke-width:.138107"/>
    </g>
</svg>